<?xml version="1.0" encoding="UTF-8"?><svg id="Layer_1" xmlns="http://www.w3.org/2000/svg" xmlns:xlink="http://www.w3.org/1999/xlink" viewBox="0 0 264 280"><defs><style>.cls-1{mask:url(#mask-10);}.cls-2{mask:url(#mask);}.cls-3{fill:#d0c6ac;}.cls-3,.cls-4,.cls-5,.cls-6,.cls-7,.cls-8,.cls-9,.cls-10,.cls-11,.cls-12,.cls-13,.cls-14,.cls-15,.cls-16,.cls-17,.cls-18,.cls-19,.cls-20,.cls-21{stroke-width:0px;}.cls-3,.cls-5,.cls-6,.cls-7,.cls-9,.cls-11,.cls-12,.cls-13,.cls-18,.cls-19,.cls-20,.cls-21{fill-rule:evenodd;}.cls-4,.cls-19{fill:rgba(0,0,0,.16);}.cls-5{fill:url(#linear-gradient);}.cls-6{fill:rgba(0,0,0,.7);}.cls-7{fill:rgba(0,0,0,.7);}.cls-8{fill:#ff4f6d;}.cls-9{fill:#e6e6e6;}.cls-10{fill:#252c2f;}.cls-11{fill:rgba(0,0,0,.6);}.cls-12{fill:url(#linear-gradient-2);}.cls-22{opacity:.6;}.cls-13,.cls-16{fill:#fff;}.cls-14{fill:#2c1b18;}.cls-15{fill:#293e53;}.cls-17{fill:#edb98a;}.cls-18{fill:#1f3140;}.cls-23{mask:url(#mask-3);}.cls-24{mask:url(#mask-2);}.cls-25{mask:url(#mask-5);}.cls-26{mask:url(#mask-4);}.cls-27{mask:url(#mask-1);}.cls-28{mask:url(#mask-7);}.cls-29{mask:url(#mask-6);}.cls-30{mask:url(#mask-8);}.cls-31{mask:url(#mask-9);}.cls-20{fill:rgba(0,0,0,.1);}.cls-21{fill:#331b0c;}</style><mask id="mask" x="12" y="40" width="240" height="240" maskUnits="userSpaceOnUse"><g id="react-mask-4"><circle id="react-path-1-2" class="cls-16" cx="132" cy="160" r="120"/></g></mask><mask id="mask-1" x="-1" y="0" width="297" height="316" maskUnits="userSpaceOnUse"><g id="react-mask-5"><path id="react-path-2" class="cls-13" d="M12,160c0,66.27,53.73,120,120,120s120-53.73,120-120h12V0H0v160h12Z"/></g></mask><mask id="mask-2" x="32" y="36" width="264" height="280" maskUnits="userSpaceOnUse"><g id="react-mask-6"><path id="react-path-3-2" class="cls-13" d="M156,180.61v18.39h4c39.76,0,72,32.24,72,72v9H32v-9c0-39.76,32.24-72,72-72h4v-18.39c-17.24-8.19-29.63-24.92-31.69-44.73-5.82-.82-10.31-5.83-10.31-11.88v-14c0-5.95,4.32-10.88,10-11.83v-6.17h0c0-30.93,25.07-56,56-56h0c30.93,0,56,25.07,56,56v6.17c5.68.95,10,5.89,10,11.83v14c0,6.05-4.48,11.06-10.31,11.88-2.07,19.81-14.46,36.54-31.69,44.73Z"/></g></mask><mask id="mask-3" x="32" y="36" width="200" height="244" maskUnits="userSpaceOnUse"><g id="react-mask-6-2"><path id="react-path-3-3" class="cls-13" d="M156,180.61v18.39h4c39.76,0,72,32.24,72,72v9H32v-9c0-39.76,32.24-72,72-72h4v-18.39c-17.24-8.19-29.63-24.92-31.69-44.73-5.82-.82-10.31-5.83-10.31-11.88v-14c0-5.95,4.32-10.88,10-11.83v-6.17h0c0-30.93,25.07-56,56-56h0c30.93,0,56,25.07,56,56v6.17c5.68.95,10,5.89,10,11.83v14c0,6.05-4.48,11.06-10.31,11.88-2.07,19.81-14.46,36.54-31.69,44.73Z"/></g></mask><mask id="mask-4" x="0" y="170" width="264" height="110" maskUnits="userSpaceOnUse"><g id="react-mask-476"><path id="react-path-475-2" class="cls-13" d="M165.96,199.29c36.98,3.03,66.04,34,66.04,71.76v8.95H32v-8.95c0-38.1,29.59-69.29,67.05-71.83-.03.37-.05.75-.05,1.13,0,11.86,15,21.48,33.5,21.48s33.5-9.62,33.5-21.48c0-.35-.01-.7-.04-1.05Z"/></g></mask><mask id="mask-5" x="32" y="174.93" width="200" height="105.07" maskUnits="userSpaceOnUse"><g id="react-mask-476-2"><path id="react-path-475-3" class="cls-13" d="M165.96,199.29c36.98,3.03,66.04,34,66.04,71.76v8.95H32v-8.95c0-38.1,29.59-69.29,67.05-71.83-.03.37-.05.75-.05,1.13,0,11.86,15,21.48,33.5,21.48s33.5-9.62,33.5-21.48c0-.35-.01-.7-.04-1.05Z"/></g></mask><mask id="mask-6" x="113.11" y="136" width="37.79" height="30" maskUnits="userSpaceOnUse"><g id="react-mask-360"><path id="react-path-359-2" class="cls-13" d="M113.12,149.13c1.06,9.49,9.11,16.87,18.88,16.87s17.87-7.43,18.89-16.96c.08-.77-.78-2.04-1.85-2.04h-33.96c-1.08,0-2.07,1.18-1.97,2.13Z"/></g></mask><mask id="mask-7" x="113.11" y="147" width="37.79" height="33" maskUnits="userSpaceOnUse"><g id="react-mask-360-2"><path id="react-path-359-3" class="cls-13" d="M113.12,149.13c1.06,9.49,9.11,16.87,18.88,16.87s17.87-7.43,18.89-16.96c.08-.77-.78-2.04-1.85-2.04h-33.96c-1.08,0-2.07,1.18-1.97,2.13Z"/></g></mask><mask id="mask-8" x="-1" y="0" width="281" height="316" maskUnits="userSpaceOnUse"><g id="react-mask-275"><rect id="react-path-277" class="cls-16" width="264" height="280"/></g></mask><mask id="mask-9" x="16" y="72" width="264" height="244" maskUnits="userSpaceOnUse"><g id="react-mask-423"><path id="react-path-424-2" class="cls-13" d="M149.43,170.17c-2.51,2.29-5.19,3.33-8.58,2.6-.58-.12-2.96-4.54-8.85-4.54s-8.27,4.41-8.85,4.54c-3.38.72-6.06-.31-8.58-2.6-4.73-4.31-8.65-10.26-6.29-16.75,1.23-3.38,3.23-7.1,6.87-8.17,3.89-1.15,9.35,0,13.26-.79,1.27-.25,2.66-.71,3.59-1.46.93.75,2.32,1.2,3.58,1.46,3.92.79,9.38-.36,13.26.79,3.64,1.08,5.64,4.79,6.87,8.17,2.36,6.49-1.57,12.44-6.29,16.75M188.08,98c-3.41,8.4-2.09,18.86-2.72,27.68-.51,7.17-2.02,17.91-8.38,22.54-3.25,2.37-9.18,6.35-13.43,5.24-2.93-.76-3.24-9.16-7.09-12.3-4.36-3.56-9.81-5.13-15.31-4.89-2.37.1-7.17.08-9.15,1.9-1.98-1.82-6.78-1.8-9.15-1.9-5.49-.24-10.94,1.32-15.31,4.89-3.85,3.14-4.16,11.54-7.09,12.3-4.25,1.11-10.18-2.87-13.43-5.24-6.36-4.63-7.87-15.37-8.38-22.54-.63-8.82.69-19.28-2.72-27.68-1.66,0-.56,16.13-.56,16.13v20.36c.03,15.29,9.58,38.17,30.75,46.91,5.18,2.14,16.91,5.61,25.89,5.61s20.71-3.14,25.89-5.28c21.17-8.74,30.72-31.95,30.75-47.24v-20.36s1.09-16.13-.57-16.13"/></g></mask><mask id="mask-10" x="-1" y="0" width="264" height="280" maskUnits="userSpaceOnUse"><g id="react-mask-274"><path id="react-path-276-2" class="cls-13" d="M179.15,39.92c-2.76-2.82-5.96-5.21-9.08-7.61-.69-.53-1.39-1.05-2.06-1.59-.15-.12-1.72-1.25-1.91-1.66-.45-.99-.19-.22-.13-1.4.08-1.5,3.13-5.73.85-6.7-1-.43-2.79.71-3.75,1.08-1.88.73-3.79,1.36-5.73,1.9.93-1.86,2.71-5.57-.63-4.58-2.6.78-5.03,2.77-7.64,3.71.86-1.42,4.32-5.81,1.2-6.06-.97-.08-3.8,1.75-4.85,2.14-3.14,1.17-6.34,1.92-9.63,2.51-11.2,2.02-24.29,1.44-34.65,6.54-7.99,3.93-15.87,10.03-20.49,17.79-4.45,7.49-6.11,15.68-7.04,24.25-.68,6.29-.74,12.8-.42,19.12.1,2.07.34,11.61,3.34,8.72,1.5-1.44,1.49-7.25,1.86-9.22.75-3.92,1.47-7.85,2.73-11.64,2.21-6.68,4.81-13.79,10.3-18.39,3.53-2.95,6-6.94,9.38-9.92,1.52-1.34.36-1.2,2.8-1.02,1.64.12,3.28.16,4.92.21,3.8.1,7.6.07,11.39.09,7.65.03,15.26.14,22.9-.26,3.39-.18,6.8-.27,10.19-.59,1.89-.18,5.25-1.39,6.8-.46,1.42.85,2.9,3.61,3.93,4.75,2.42,2.68,5.3,4.72,8.13,6.92,5.89,4.58,8.87,10.33,10.66,17.49,1.78,7.13,1.28,13.74,3.49,20.76.39,1.23,1.42,3.36,2.68,1.45.24-.35.17-2.3.17-3.42,0-4.52,1.14-7.91,1.13-12.46-.06-13.83-.5-31.87-10.85-42.44Z"/></g></mask><linearGradient id="linear-gradient" x1="-168.57" y1="529.74" x2="-168.57" y2="528.74" gradientTransform="translate(7517.83 18711.64) scale(43.99 -35.14)" gradientUnits="userSpaceOnUse"><stop offset="0" stop-color="#fff" stop-opacity=".5"/><stop offset=".71" stop-color="#000" stop-opacity=".5"/></linearGradient><linearGradient id="linear-gradient-2" x1="-168.57" y1="529.74" x2="-168.57" y2="528.74" gradientTransform="translate(7579.4 18711.64) scale(43.99 -35.14)" gradientUnits="userSpaceOnUse"><stop offset="0" stop-color="#fff" stop-opacity=".5"/><stop offset=".71" stop-color="#000" stop-opacity=".5"/></linearGradient></defs><g id="Avataaar"><g id="Avataaar_Circle"><g id="Circle"><g id="Circle-Background"><circle id="react-path-1" class="cls-15" cx="132" cy="160" r="120"/></g><g class="cls-2"><g id="Color_Palette_Blue-01"><rect id="_Color" class="cls-15" x="12" y="40" width="240" height="240"/></g></g></g><g class="cls-27"><g id="Avataaar-2"><g id="Body"><path id="react-path-3" class="cls-3" d="M156,180.61v18.39h4c39.76,0,72,32.24,72,72v9H32v-9c0-39.76,32.24-72,72-72h4v-18.39c-17.24-8.19-29.63-24.92-31.69-44.73-5.82-.82-10.31-5.83-10.31-11.88v-14c0-5.95,4.32-10.88,10-11.83v-6.17h0c0-30.93,25.07-56,56-56h0c30.93,0,56,25.07,56,56v6.17c5.68.95,10,5.89,10,11.83v14c0,6.05-4.48,11.06-10.31,11.88-2.07,19.81-14.46,36.54-31.69,44.73Z"/><g class="cls-24"><g id="Skin_-03-Brown"><g id="Color"><rect class="cls-17" x="32" y="36" width="264" height="280"/></g></g></g><g class="cls-23"><path id="Neck-Shadow" class="cls-20" d="M188,115v23c0,30.93-25.07,56-56,56s-56-25.07-56-56v-23,15c0,30.93,25.07,56,56,56s56-25.07,56-56v-15Z"/></g></g><g id="Clothing_Shirt-Crew-Neck"><g id="Clothes"><path id="react-path-475" class="cls-9" d="M165.96,199.29c36.98,3.03,66.04,34,66.04,71.76v8.95H32v-8.95c0-38.1,29.59-69.29,67.05-71.83-.03.37-.05.75-.05,1.13,0,11.86,15,21.48,33.5,21.48s33.5-9.62,33.5-21.48c0-.35-.01-.7-.04-1.05Z"/></g><g class="cls-26"><g id="Color_Palette_Gray-01"><rect id="_Color-2" class="cls-16" y="170" width="264" height="110"/></g></g><g class="cls-25"><g id="Shadowy" class="cls-22"><g id="Hola-_"><ellipse class="cls-4" cx="132.5" cy="201.85" rx="39.64" ry="26.91"/></g></g></g></g><g id="Face"><g id="Mouth_Smile"><g id="Mouth"><path id="react-path-359" class="cls-6" d="M113.12,149.13c1.06,9.49,9.11,16.87,18.88,16.87s17.87-7.43,18.89-16.96c.08-.77-.78-2.04-1.85-2.04h-33.96c-1.08,0-2.07,1.18-1.97,2.13Z"/></g><g class="cls-29"><rect id="Teeth" class="cls-16" x="117" y="136" width="31" height="16" rx="5" ry="5"/></g><g class="cls-28"><g id="Tongue"><circle class="cls-8" cx="127" cy="169" r="11"/><circle class="cls-8" cx="137" cy="169" r="11"/></g></g></g><g id="Nose_Default"><path id="Nose" class="cls-19" d="M120,130c0,4.42,5.37,8,12,8h0c6.63,0,12-3.58,12-8"/></g><g id="Eyes_Happy-_"><path id="Squint" class="cls-11" d="M92.16,112.45c1.85-3.8,6-6.45,10.84-6.45s8.96,2.63,10.82,6.41c.55,1.12-.23,2.04-1.02,1.36-2.45-2.11-5.93-3.42-9.79-3.42s-7.12,1.23-9.56,3.23c-.89.73-1.82-.01-1.28-1.12Z"/><path id="Squint-2" class="cls-11" d="M150.16,112.45c1.85-3.8,6-6.45,10.84-6.45s8.96,2.63,10.82,6.41c.55,1.12-.23,2.04-1.02,1.36-2.45-2.11-5.93-3.42-9.79-3.42s-7.12,1.23-9.56,3.23c-.89.73-1.82-.01-1.28-1.12Z"/></g><g id="Eyebrow_Natural_Default-Natural"><path id="Eyebrow" class="cls-11" d="M102.55,88.15c-5.81.27-15.2,4.49-14.95,10.34,0,.19.29.28.43.13,2.75-2.96,22.32-5.95,29.2-4.37.63.15,1.11-.48.71-.93-3.42-3.85-10.19-5.43-15.39-5.18"/><path id="Eyebrow-2" class="cls-11" d="M162.45,88.15c5.81.27,15.2,4.49,14.95,10.34,0,.19-.29.28-.43.13-2.75-2.96-22.32-5.95-29.2-4.37-.63.15-1.11-.48-.71-.93,3.42-3.85,10.19-5.43,15.39-5.18"/></g></g><g id="Top"><g class="cls-30"><g id="Top_Short-Hair_Short-Flat"><g id="Facial-Hair_Beard-Light"><g id="Lite-Beard"><path id="react-path-424" class="cls-21" d="M149.43,170.17c-2.51,2.29-5.19,3.33-8.58,2.6-.58-.12-2.96-4.54-8.85-4.54s-8.27,4.41-8.85,4.54c-3.38.72-6.06-.31-8.58-2.6-4.73-4.31-8.65-10.26-6.29-16.75,1.23-3.38,3.23-7.1,6.87-8.17,3.89-1.15,9.35,0,13.26-.79,1.27-.25,2.66-.71,3.59-1.46.93.75,2.32,1.2,3.58,1.46,3.92.79,9.38-.36,13.26.79,3.64,1.08,5.64,4.79,6.87,8.17,2.36,6.49-1.57,12.44-6.29,16.75M188.08,98c-3.41,8.4-2.09,18.86-2.72,27.68-.51,7.17-2.02,17.91-8.38,22.54-3.25,2.37-9.18,6.35-13.43,5.24-2.93-.76-3.24-9.16-7.09-12.3-4.36-3.56-9.81-5.13-15.31-4.89-2.37.1-7.17.08-9.15,1.9-1.98-1.82-6.78-1.8-9.15-1.9-5.49-.24-10.94,1.32-15.31,4.89-3.85,3.14-4.16,11.54-7.09,12.3-4.25,1.11-10.18-2.87-13.43-5.24-6.36-4.63-7.87-15.37-8.38-22.54-.63-8.82.69-19.28-2.72-27.68-1.66,0-.56,16.13-.56,16.13v20.36c.03,15.29,9.58,38.17,30.75,46.91,5.18,2.14,16.91,5.61,25.89,5.61s20.71-3.14,25.89-5.28c21.17-8.74,30.72-31.95,30.75-47.24v-20.36s1.09-16.13-.57-16.13"/></g><g class="cls-31"><g id="Color_Hair_Brown"><g id="Color-2"><rect class="cls-14" x="16" y="72" width="264" height="244"/></g></g></g></g><g id="Short-Hair"><path id="react-path-276" class="cls-18" d="M179.15,39.92c-2.76-2.82-5.96-5.21-9.08-7.61-.69-.53-1.39-1.05-2.06-1.59-.15-.12-1.72-1.25-1.91-1.66-.45-.99-.19-.22-.13-1.4.08-1.5,3.13-5.73.85-6.7-1-.43-2.79.71-3.75,1.08-1.88.73-3.79,1.36-5.73,1.9.93-1.86,2.71-5.57-.63-4.58-2.6.78-5.03,2.77-7.64,3.71.86-1.42,4.32-5.81,1.2-6.06-.97-.08-3.8,1.75-4.85,2.14-3.14,1.17-6.34,1.92-9.63,2.51-11.2,2.02-24.29,1.44-34.65,6.54-7.99,3.93-15.87,10.03-20.49,17.79-4.45,7.49-6.11,15.68-7.04,24.25-.68,6.29-.74,12.8-.42,19.12.1,2.07.34,11.61,3.34,8.72,1.5-1.44,1.49-7.25,1.86-9.22.75-3.92,1.47-7.85,2.73-11.64,2.21-6.68,4.81-13.79,10.3-18.39,3.53-2.95,6-6.94,9.38-9.92,1.52-1.34.36-1.2,2.8-1.02,1.64.12,3.28.16,4.92.21,3.8.1,7.6.07,11.39.09,7.65.03,15.26.14,22.9-.26,3.39-.18,6.8-.27,10.19-.59,1.89-.18,5.25-1.39,6.8-.46,1.42.85,2.9,3.61,3.93,4.75,2.42,2.68,5.3,4.72,8.13,6.92,5.89,4.58,8.87,10.33,10.66,17.49,1.78,7.13,1.28,13.74,3.49,20.76.39,1.23,1.42,3.36,2.68,1.45.24-.35.17-2.3.17-3.42,0-4.52,1.14-7.91,1.13-12.46-.06-13.83-.5-31.87-10.85-42.44Z"/></g><g class="cls-1"><g id="Skin_-03-Brown-2"><g id="Color-3"><rect class="cls-14" x="-1" width="264" height="280"/></g></g></g><g id="Top__Resources_Wayfarers"><g id="Wayfarers"><g id="Shades"><g id="Shade"><path id="react-path-487" class="cls-7" d="M123.71,112.5c0,9.7-8.25,17.57-22,17.57h-2.75c-13.75,0-19.25-7.87-19.25-17.57h0c0-9.71,1.28-17.57,20.53-17.57h2.93c19.25,0,20.53,7.87,20.53,17.57h0Z"/><path id="react-path-487-2" class="cls-5" d="M123.71,112.5c0,9.7-8.25,17.57-22,17.57h-2.75c-13.75,0-19.25-7.87-19.25-17.57h0c0-9.71,1.28-17.57,20.53-17.57h2.93c19.25,0,20.53,7.87,20.53,17.57h0Z"/></g><g id="Shade-2"><path id="react-path-488" class="cls-7" d="M185.28,112.5c0,9.7-8.25,17.57-22,17.57h-2.75c-13.75,0-19.25-7.87-19.25-17.57h0c0-9.71,1.28-17.57,20.53-17.57h2.93c19.24,0,20.53,7.87,20.53,17.57h0Z"/><path id="react-path-488-2" class="cls-12" d="M185.28,112.5c0,9.7-8.25,17.57-22,17.57h-2.75c-13.75,0-19.25-7.87-19.25-17.57h0c0-9.71,1.28-17.57,20.53-17.57h2.93c19.24,0,20.53,7.87,20.53,17.57h0Z"/></g></g><path id="Left" class="cls-10" d="M101.72,133h-2.75c-13.89,0-22.18-7.66-22.18-20.5,0-10.37,1.81-20.5,23.46-20.5h2.93c21.65,0,23.46,10.13,23.46,20.5,0,12.07-10.25,20.5-24.93,20.5ZM100.25,97.85c-17.6,0-17.6,6.46-17.6,14.65,0,6.68,2.83,14.64,16.32,14.64h2.75c11.23,0,19.07-6.02,19.07-14.64s0-14.65-17.6-14.65h-2.93Z"/><path id="Right" class="cls-10" d="M163.28,133h-2.75c-13.89,0-22.18-7.66-22.18-20.5,0-10.37,1.81-20.5,23.46-20.5h2.93c21.65,0,23.46,10.13,23.46,20.5,0,12.07-10.25,20.5-24.93,20.5ZM161.82,97.85c-17.6,0-17.6,6.46-17.6,14.65,0,6.68,2.83,14.64,16.32,14.64h2.75c11.23,0,19.07-6.02,19.07-14.64s0-14.65-17.6-14.65h-2.93Z"/><path id="Stuff" class="cls-10" d="M70.93,97.86c.69-.69,8.19-5.86,29.32-5.86,17.71,0,21.46,1.88,27.14,4.72l.42.21c.39.14,2.41.84,4.77.92,2.15-.09,3.99-.69,4.53-.88,6.48-3.22,12.82-4.97,27.64-4.97,21.13,0,28.63,5.17,29.32,5.86,1.62,0,2.93,1.31,2.93,2.93v2.93c0,1.62-1.31,2.93-2.93,2.93,0,0-5.86,0-5.86,2.93s-2.93-4.24-2.93-5.86v-2.85c-3.58-1.4-9.98-3-20.52-3-11.75,0-17.6,1.13-22.62,3.25l.06.14-2.5,1.01,2.49,1.01-2.2,5.43-2.72-1.1c-.24-.1-.77-.27-1.49-.46-2.02-.51-4.11-.67-5.95-.28-.68.14-1.3.35-1.88.64l-2.62,1.31-2.62-5.24,2.62-1.31h0s-2.51-1.02-2.51-1.02l.08-.2c-4.33-2.06-8.32-3.18-22.65-3.18-10.55,0-16.95,1.6-20.52,3v2.85c0,1.62-2.93,8.79-2.93,5.86s-5.86-2.93-5.86-2.93c-1.62,0-2.93-1.31-2.93-2.93v-2.93c0-1.62,1.31-2.93,2.93-2.93Z"/></g></g></g></g></g></g></g></g></g></svg>